<svg id="Слой_1" data-name="Слой 1" xmlns="http://www.w3.org/2000/svg" viewBox="0 0 1280 1024"><defs><style>.cls-1{fill:#1c7fea;}.cls-2{fill:#1f1f1f;}</style></defs><title>Лого ПТ</title><path class="cls-1" d="M419.56,67.92,238,135.1A13.7,13.7,0,0,0,229,148l12.24,794.56a13.7,13.7,0,0,0,13.59,13.7l73.53.79a13.71,13.71,0,0,0,13.82-13.71l12.23-699.85a13.72,13.72,0,0,1,8.52-12.69L417,208.63a13.71,13.71,0,0,1,9.55-.3l68.4,22.94a13.71,13.71,0,0,1,9.35,13V390.33a13.7,13.7,0,0,1-8,12.44l-104.92,48.5a13.71,13.71,0,0,0-7.95,12.44V562a13.71,13.71,0,0,0,20.07,12.15L617.77,461.9a13.7,13.7,0,0,0,7.34-12.14V163.12a13.71,13.71,0,0,0-8.18-12.55L429.84,68.23A13.75,13.75,0,0,0,419.56,67.92Z"/><path class="cls-2" d="M233.45,436.87l7.79,505.64a13.7,13.7,0,0,0,13.59,13.7l73.53.79a13.71,13.71,0,0,0,13.82-13.71L349,552.43Z"/><path class="cls-1" d="M1044,66H458a3.18,3.18,0,0,0-1.3,6.08l216.18,96.71a13.71,13.71,0,0,0,5.64,1.21h19.35l3.44,627.94c0,4.2,1.79,5.23,7.5,1.64L812,730.29a29.45,29.45,0,0,0,2.73-12.1L818.17,170H1044a7.78,7.78,0,0,0,7.78-7.78V73.78A7.78,7.78,0,0,0,1044,66Z"/><path class="cls-2" d="M708.82,799.58,812,730.29a29.45,29.45,0,0,0,2.73-12.1l1.82-363.7L700.26,604.28l1.06,193.66A3.93,3.93,0,0,0,708.82,799.58Z"/></svg>