<?xml version="1.0" encoding="utf-8"?>
<!-- Generator: Adobe Illustrator 23.0.3, SVG Export Plug-In . SVG Version: 6.00 Build 0)  -->
<svg version="1.1" id="Layer_1" xmlns="http://www.w3.org/2000/svg" xmlns:xlink="http://www.w3.org/1999/xlink" x="0px" y="0px"
	 viewBox="0 0 160 51" style="enable-background:new 0 0 160 51;" xml:space="preserve">
<style type="text/css">
	.st0{fill-rule:evenodd;clip-rule:evenodd;fill:#F9A31A;}
	.st1{filter:url(#Adobe_OpacityMaskFilter);}
	.st2{fill-rule:evenodd;clip-rule:evenodd;fill:#FFFFFF;}
	.st3{mask:url(#mask-4_1_);fill-rule:evenodd;clip-rule:evenodd;fill:#F9A31A;}
</style>
<title>DC97A92E-F32C-47AD-8444-C04FACDB5BF7</title>
<desc>Created with sketchtool.</desc>
<g>
	<g transform="translate(-577.000000, -19.000000)">
		<g id="Group-5" transform="translate(577.000000, 19.000000)">
			<g transform="translate(67.000000, 9.000000)">
				<polygon class="st0" points="-67,37 93,37 93,29 -67,29 				"/>
				<g id="Group-25">
					<g id="Group-4">
						<g id="Clip-3">
						</g>
						<defs>
							<filter id="Adobe_OpacityMaskFilter" filterUnits="userSpaceOnUse" x="-67" y="0.7" width="12.4" height="16.1">
								<feColorMatrix  type="matrix" values="1 0 0 0 0  0 1 0 0 0  0 0 1 0 0  0 0 0 1 0"/>
							</filter>
						</defs>
						<mask maskUnits="userSpaceOnUse" x="-67" y="0.7" width="12.4" height="16.1" id="mask-4_1_">
							<g class="st1">
								<polygon id="path-3_1_" class="st2" points="-54.6,0.7 -67,0.7 -67,16.8 -54.6,16.8 								"/>
							</g>
						</mask>
						<path id="Fill-2" class="st3" d="M-63.7,7.6h3.4c1.6,0,2.5-0.7,2.5-2s-0.9-2-2.5-2h-3.4V7.6z M-67,16.8V0.7h6.9
							c1.7,0,3,0.5,4,1.4c1,0.9,1.5,2,1.5,3.5c0,1.4-0.5,2.6-1.5,3.5c-1,0.9-2.3,1.4-4,1.4h-3.7v6.4H-67z"/>
					</g>
					<path id="Fill-5" class="st0" d="M-47.2,14.2c0.9,0,1.6-0.3,2.2-0.9c0.6-0.6,0.9-1.4,0.9-2.3c0-0.9-0.3-1.7-0.9-2.3
						c-0.6-0.6-1.3-0.9-2.2-0.9c-0.9,0-1.6,0.3-2.2,0.9c-0.6,0.6-0.9,1.4-0.9,2.3c0,0.9,0.3,1.7,0.9,2.3
						C-48.9,13.9-48.1,14.2-47.2,14.2 M-51.7,6.8c1.2-1.2,2.7-1.7,4.5-1.7c1.8,0,3.3,0.6,4.5,1.7C-41.6,7.9-41,9.4-41,11
						c0,1.7-0.6,3.1-1.8,4.3c-1.2,1.1-2.7,1.7-4.5,1.7c-1.8,0-3.3-0.6-4.5-1.7c-1.2-1.2-1.8-2.6-1.8-4.3
						C-53.5,9.3-52.9,7.9-51.7,6.8"/>
					<path id="Fill-7" class="st0" d="M-37,15.4c-1.2-1.1-1.8-2.6-1.8-4.4c0-1.8,0.6-3.3,1.8-4.3c1.2-1.1,2.7-1.7,4.4-1.7
						c1.2,0,2.3,0.3,3.3,0.8v2.8c-1-0.5-1.9-0.7-2.9-0.7c-1,0-1.8,0.3-2.5,0.9c-0.7,0.6-1,1.4-1,2.3c0,0.9,0.3,1.7,1,2.3
						s1.5,0.9,2.5,0.9c1.2,0,2.2-0.3,3-0.8v2.8c-1.1,0.6-2.2,0.8-3.6,0.8C-34.4,17.1-35.8,16.5-37,15.4"/>
					<polygon id="Fill-9" class="st0" points="-25.9,16.8 -25.9,5.3 -22.7,5.3 -19.4,9.6 -16.2,5.3 -13,5.3 -13,16.8 -16,16.8
						-16,9.7 -18.8,13.3 -20.1,13.3 -22.9,9.7 -22.9,16.8 					"/>
					<path id="Fill-11" class="st0" d="M-3.9,14.2c0.9,0,1.6-0.3,2.2-0.9c0.6-0.6,0.9-1.4,0.9-2.3c0-0.9-0.3-1.7-0.9-2.3
						C-2.3,8.1-3,7.8-3.9,7.8c-0.9,0-1.6,0.3-2.2,0.9c-0.6,0.6-0.9,1.4-0.9,2.3c0,0.9,0.3,1.7,0.9,2.3C-5.6,13.9-4.8,14.2-3.9,14.2
						 M-8.4,6.8C-7.3,5.6-5.8,5-3.9,5c1.8,0,3.3,0.6,4.5,1.7C1.7,7.9,2.3,9.4,2.3,11c0,1.7-0.6,3.1-1.8,4.3
						c-1.2,1.1-2.7,1.7-4.5,1.7c-1.8,0-3.3-0.6-4.5-1.7c-1.2-1.2-1.8-2.6-1.8-4.3C-10.2,9.3-9.6,7.9-8.4,6.8"/>
					<path id="Fill-13" class="st0" d="M9.4,8l0,1.6c-0.1,1.6-0.1,2.6-0.5,4c-0.5,1.9-1.6,3.1-3.9,3.2c-0.5,0-0.9-0.1-1.2-0.2V14
						c0.2,0.1,0.4,0.1,0.7,0.1c0.7,0,1.2-0.4,1.5-1.5c0.3-1.1,0.3-2,0.4-3.9l0.1-3.4h9.7v11.5h-3.2V8H9.4z"/>
					<path id="Fill-15" class="st0" d="M25.3,14.2c0.9,0,1.6-0.3,2.2-0.9c0.6-0.6,0.9-1.4,0.9-2.3c0-0.9-0.3-1.7-0.9-2.3
						c-0.6-0.6-1.3-0.9-2.2-0.9S23.6,8.1,23,8.8c-0.6,0.6-0.9,1.4-0.9,2.3c0,0.9,0.3,1.7,0.9,2.3C23.6,13.9,24.4,14.2,25.3,14.2
						 M20.8,6.8C21.9,5.6,23.4,5,25.3,5c1.8,0,3.3,0.6,4.5,1.7c1.2,1.2,1.8,2.6,1.8,4.3c0,1.7-0.6,3.1-1.8,4.3
						c-1.2,1.1-2.7,1.7-4.5,1.7c-1.8,0-3.3-0.6-4.5-1.7C19.6,14.2,19,12.8,19,11C19,9.3,19.6,7.9,20.8,6.8"/>
					<path id="Fill-17" class="st0" d="M42.3,14.1V8h-3.5c0,2.4-0.3,4.4-1,6H42.3z M33,19.7v-5.6h1.4c0.9-1.4,1.3-3.5,1.4-6.5l0-2.2
						h9.5v8.7h1.9v5.6h-3v-2.9h-8.1v2.9H33z"/>
					<path id="Fill-19" class="st0" d="M57.3,9.9c-0.1-1.3-0.9-2.3-2.4-2.3c-1.4,0-2.4,0.9-2.6,2.3H57.3z M51,15.4
						c-1.2-1.1-1.8-2.6-1.8-4.4c0-1.7,0.5-3.1,1.6-4.3C51.9,5.6,53.4,5,55.1,5C56.8,5,58,5.6,59,6.8c1,1.2,1.5,2.6,1.5,4.3v0.8h-8.1
						c0.3,1.6,1.8,2.4,3.8,2.4c1.3,0,2.5-0.3,3.6-1v2.6c-1,0.8-2.4,1.2-4.3,1.2C53.7,17.1,52.2,16.5,51,15.4L51,15.4z"/>
					<polygon id="Fill-21" class="st0" points="61.7,16.8 66.5,10.7 62.1,5.3 65.7,5.3 69.2,9.6 69.2,5.3 72.3,5.3 72.3,9.6
						75.7,5.3 79.3,5.3 74.9,10.7 79.8,16.8 76,16.8 72.3,11.9 72.3,16.8 69.2,16.8 69.2,11.9 65.4,16.8 					"/>
					<path id="Fill-23" class="st0" d="M85.4,14.3h2.2c1.2,0,2-0.6,2-1.6c0-1-0.7-1.6-2-1.6h-2.2V14.3z M82.2,16.8V5.3h3.2v3.4h2.7
						c2.8,0,4.7,1.6,4.7,4c0,1.2-0.4,2.1-1.2,2.9c-0.8,0.8-1.9,1.1-3.3,1.1H82.2z"/>
				</g>
			</g>
		</g>
	</g>
</g>
</svg>
